<mxfile host="app.diagrams.net" modified="2021-08-03T17:17:11.021Z" agent="5.0 (Macintosh; Intel Mac OS X 10_15_7) AppleWebKit/537.36 (KHTML, like Gecko) Chrome/91.0.4472.164 Safari/537.36" etag="nDf1ET6YTy6L1cQPe9gw" version="14.8.5" type="github">
  <diagram id="BPJvCoClXwl4Eg1QNkG9" name="Page-1">
    <mxGraphModel dx="1927" dy="820" grid="0" gridSize="10" guides="1" tooltips="1" connect="1" arrows="1" fold="1" page="1" pageScale="1" pageWidth="1169" pageHeight="827" background="#CCCCFF" math="0" shadow="0">
      <root>
        <mxCell id="0" />
        <mxCell id="1" parent="0" />
        <mxCell id="gJMDDrKuZHIaTqVfFHeI-1" value="" style="whiteSpace=wrap;html=1;aspect=fixed;" vertex="1" parent="1">
          <mxGeometry x="115" y="125" width="290" height="290" as="geometry" />
        </mxCell>
        <mxCell id="gJMDDrKuZHIaTqVfFHeI-3" value="git : BS ED + PKI" style="rounded=1;whiteSpace=wrap;html=1;" vertex="1" parent="1">
          <mxGeometry x="200" y="130" width="120" height="60" as="geometry" />
        </mxCell>
        <mxCell id="gJMDDrKuZHIaTqVfFHeI-6" value="git: GE ED" style="rounded=1;whiteSpace=wrap;html=1;" vertex="1" parent="1">
          <mxGeometry x="200" y="355" width="120" height="60" as="geometry" />
        </mxCell>
        <mxCell id="gJMDDrKuZHIaTqVfFHeI-7" value="ROOT ED&amp;nbsp;&lt;br&gt;in NT" style="text;html=1;strokeColor=none;fillColor=none;align=center;verticalAlign=middle;whiteSpace=wrap;rounded=0;" vertex="1" parent="1">
          <mxGeometry x="200" y="80" width="120" height="20" as="geometry" />
        </mxCell>
        <mxCell id="gJMDDrKuZHIaTqVfFHeI-10" value="" style="whiteSpace=wrap;html=1;aspect=fixed;" vertex="1" parent="1">
          <mxGeometry x="72.5" y="540" width="310" height="310" as="geometry" />
        </mxCell>
        <mxCell id="gJMDDrKuZHIaTqVfFHeI-2" value="nexus: baseline MS60 ED" style="rounded=1;whiteSpace=wrap;html=1;" vertex="1" parent="1">
          <mxGeometry x="167.5" y="600" width="120" height="35" as="geometry" />
        </mxCell>
        <mxCell id="gJMDDrKuZHIaTqVfFHeI-11" value="git: baseline OC" style="rounded=0;whiteSpace=wrap;html=1;" vertex="1" parent="1">
          <mxGeometry x="163.75" y="716" width="120" height="45" as="geometry" />
        </mxCell>
        <mxCell id="gJMDDrKuZHIaTqVfFHeI-12" value="" style="whiteSpace=wrap;html=1;aspect=fixed;" vertex="1" parent="1">
          <mxGeometry x="500" y="520" width="320" height="320" as="geometry" />
        </mxCell>
        <mxCell id="gJMDDrKuZHIaTqVfFHeI-13" value="nexus: baseline ms60 ED" style="rounded=1;whiteSpace=wrap;html=1;" vertex="1" parent="1">
          <mxGeometry x="620" y="580" width="120" height="40" as="geometry" />
        </mxCell>
        <mxCell id="gJMDDrKuZHIaTqVfFHeI-14" value="nexus: baseline OC" style="rounded=0;whiteSpace=wrap;html=1;" vertex="1" parent="1">
          <mxGeometry x="620" y="635" width="120" height="40" as="geometry" />
        </mxCell>
        <mxCell id="gJMDDrKuZHIaTqVfFHeI-15" value="git : baseline ED&lt;br&gt;All FND/PLT" style="rounded=1;whiteSpace=wrap;html=1;" vertex="1" parent="1">
          <mxGeometry x="200" y="210" width="120" height="60" as="geometry" />
        </mxCell>
        <mxCell id="gJMDDrKuZHIaTqVfFHeI-16" value="Suite Root ED" style="text;html=1;strokeColor=none;fillColor=none;align=center;verticalAlign=middle;whiteSpace=wrap;rounded=0;" vertex="1" parent="1">
          <mxGeometry x="635" y="480" width="90" height="20" as="geometry" />
        </mxCell>
        <mxCell id="gJMDDrKuZHIaTqVfFHeI-17" value="Train Root ED" style="text;html=1;strokeColor=none;fillColor=none;align=center;verticalAlign=middle;whiteSpace=wrap;rounded=0;" vertex="1" parent="1">
          <mxGeometry x="190" y="510" width="92.5" height="20" as="geometry" />
        </mxCell>
        <mxCell id="gJMDDrKuZHIaTqVfFHeI-19" value="git : PLT LMT ED" style="rounded=1;whiteSpace=wrap;html=1;" vertex="1" parent="1">
          <mxGeometry x="200" y="290" width="120" height="50" as="geometry" />
        </mxCell>
        <mxCell id="gJMDDrKuZHIaTqVfFHeI-20" value="nexus: C1 ED" style="rounded=1;whiteSpace=wrap;html=1;" vertex="1" parent="1">
          <mxGeometry x="166.25" y="656" width="127.5" height="30" as="geometry" />
        </mxCell>
        <mxCell id="gJMDDrKuZHIaTqVfFHeI-21" value="git: Train specific ED" style="rounded=1;whiteSpace=wrap;html=1;" vertex="1" parent="1">
          <mxGeometry x="160" y="790" width="127.5" height="50" as="geometry" />
        </mxCell>
        <mxCell id="gJMDDrKuZHIaTqVfFHeI-22" value="&amp;nbsp;git: BS ED" style="rounded=1;whiteSpace=wrap;html=1;" vertex="1" parent="1">
          <mxGeometry x="170" y="555" width="120" height="30" as="geometry" />
        </mxCell>
        <mxCell id="gJMDDrKuZHIaTqVfFHeI-23" value="nexus: baseline OH" style="rounded=0;whiteSpace=wrap;html=1;" vertex="1" parent="1">
          <mxGeometry x="620" y="690" width="120" height="40" as="geometry" />
        </mxCell>
        <mxCell id="gJMDDrKuZHIaTqVfFHeI-24" value="git: suite specific ED" style="rounded=0;whiteSpace=wrap;html=1;" vertex="1" parent="1">
          <mxGeometry x="620" y="750" width="120" height="40" as="geometry" />
        </mxCell>
        <mxCell id="gJMDDrKuZHIaTqVfFHeI-25" value="&amp;nbsp;BS ED" style="rounded=1;whiteSpace=wrap;html=1;" vertex="1" parent="1">
          <mxGeometry x="620" y="540" width="120" height="30" as="geometry" />
        </mxCell>
        <mxCell id="gJMDDrKuZHIaTqVfFHeI-27" value="Repo" style="swimlane;" vertex="1" parent="1">
          <mxGeometry x="531.58" y="170" width="200" height="200" as="geometry" />
        </mxCell>
        <mxCell id="gJMDDrKuZHIaTqVfFHeI-26" value="" style="shape=image;verticalLabelPosition=bottom;labelBackgroundColor=#ffffff;verticalAlign=top;aspect=fixed;imageAspect=0;image=data:image/jpeg,/9j/4AAQSkZJRgABAQAAAQABAAD/2wCEAAoHCBUVFRgWFRYZGBgZGBgcHBwYGRoaGRkaGBkaHBkcHRkcIS4lHCErHxwYJjgmKy8xNTU1GiQ7QDszPy41NTEBDAwMEA8QHxISHz8rIyc/NDE9Pzg/OjQxNDQxNDQ0NDQxNDE6MTQxNDQ0ND8xMTQ0NDQ0QDQxMT80NDQxNDQxMf/AABEIAG8BxgMBIgACEQEDEQH/xAAcAAEAAgIDAQAAAAAAAAAAAAAABgcFCAEDBAL/xABNEAABAwIBBwYHDAgGAgMAAAABAAIDBBEFBgcSITFBURZUYYGS0RMiMlNxkbI0NVJicnN0k6GisdIUFRcjQoKz4TNDRHXBxCTwJWPC/8QAGAEBAQEBAQAAAAAAAAAAAAAAAAMBAgT/xAAiEQEAAgIBBAMBAQAAAAAAAAAAAQIDEVESExQxBEFSISL/2gAMAwEAAhEDEQA/ALkul1XOX+NVEc7Y43uY3QDvFNi4kuBuduq2zpUWGP1Q2VEvbKvX49rV3EoWzxWdaXeipHlFV84k7ZXBygqucSdsrrxbcufIjhd90VJ0+UVWxwcJ3k3Gpzi4HoIO1XRCSWtJ2kAn021qWTFNNbUx5IvvTsuixuP1ToqeWRnlNYSN+sb7dCqF+UNU7WaiTqeQPsTHim/9iTJlik6mF4IqMOOVPOJO27vT9dVPOJO27vVfFnlPyY4XndAqQjyiqm7KiTreT9hurKyIxl9TC4yWLmP0SQLaQsCDYb9ankw2pG9u6ZYtOknREUlhEXCBdFr7lblZXMrqgMqZGNjme1jWkBrWtcQBo2s7rurUyAyvZXw2dZs7ABI3jwe0fBP2HUgl6IiAiIgIiIC4uuVR2czKSsjrnxR1EkcbGxlrWENsSwEm4FzrJ2oLxRYLIzEH1FDTzSG73xtLjxcNRPWRdZ1AREQEREBERAREQEREBERAREQEREBERAREQEREBERAREQEREBERB4arDIJSDJEx5AsC9jXEDgCQujk/Sc2h+rZ3KLZc5QVFPMxkLtFpj0j4rTclxH8QOyw9ajPLOu899yP8qvTFe0RMShbLWJ1MLP5P0nN4fq2dycn6Tm8P1bO5VjyzrfPfcj/ACpyzrfPfcj/ACrrsZOXHepws9uA0oNxTwgjZaNmr7FklTvLOt899yP8qcs63z33I/yrJ+PefctjPWPULfewOBBAIOog6wR6F5/1XB5mPsN7lVHLOu899yP8qcs63z33I/ypHxrx9tnPWfpa/wCq4PMx9hvcn6rg8zH2G9yqjlnXee+5H+VOWdd577kf5U8e/LO/Tha/6sg8zH2G9y7YKZjLhjGtB2hrQL+pVHyzrfPfcj/KppkHi89QyUzO0tFzQDYDaNY1ALm+K1Y3MuqZa2nUQmCLgLlRXEREGsOWfu+r+kS+2V8QyVOHzxyNuyTQZI07WuZI0EXt5TSDYjiOgFfeWnu+r+kS+2VctZktHX4ZTMdZsjaaExv+C7wbdR4tO8dyDNZJZSxV8Alj1OHivYTrY7eOkbwd6z61nwnEanCqsnRLXsIbIx3kvZcEjp1a2u9B4rYTAcZiq4Wzwuuxw2Ha129rhuIKDKIiICIiAtec6/vnN8mL2GrYZa851/fOb5MXsNQW9m197KX5s+25ShRfNr72UvzZ9tylCAiIgIiICIiAiIgIiICIiAiIgIiICIiAiIgIiICIiAiIgIiICIiDxVuHQzACWNrwNmkAbejgvFyXoubx9lYbODik0EcYicWabnAuG2wFwAd39lAxlFV84k7RV8eK9o3EvPkyVrbUwtXkxR83j7K55NUfN4uwFVPKOr5xJ2ynKKr5xJ2yqdjJ+nHepwtfkzR83i7ATkzR83i7AUJyKx+pfUNje90jHB2lpay2wuHX27dXWrNULxas6mVqdNo3EMRyZo+bxdgLjk1R83i7AWVedSpN2UNXc3qJQbm40yLHh0LrHW1/UsyTWnuFr8mqPm8XYC45MUfN4+yqo5Q1fOJe2Vzygq+cS9tyr2Mn6S71OFrcl6Lm8fZWQpKOOJujGxrG8GiwVNsykq2m4qJNXF1x1h2pW1k/Vulp45Hiz3NBcLW18bbrix61LLjtSP8AU7Vx3raf5GmUREUVhEXCDWLLT3fV/SJfbK2IyX9xUv0eD+m1a75ae76v6RL7ZWxGS/uKl+jwf02oI9nDyLbXR6cYDamMeKdz2j+B3/B3HoVT5G5TS4bUHSa7wZdozRHUQRq0gDse37Rq4LY9VpnOyH/SGuqqZv75ou9jQP3rQNvywBq4jVwQWDh9ayaNssbg5jwC1w2EFepa+5u8tTQv8FKSad7vGvc+Cds0mjcOI61fsbw4BzSCCAQRrBB1ggoO1ERAWvOdf3zm+TF7DVsMtec6/vnN8mL2GoLeza+9lL82fbcpQovm197KX5s+25ShARdcjw0Ek2ABJJ2ADaSqWy4zmPkc6GieWRDUZRcPk46J2tb07T0ILYxPH6Wn/wAeeOPoe4Bx9Ddp9SxP7RMMvb9Kb6dF9vXoqosAyArq0eFd+7Y/X4SYkuffeG+UfSbX6VKBmbNvdY0rea1X7V0FnYZjVPUC8E8cg+I9riPSBrCyS14ygyFrqD98w6TGf5sDnNezpcAQ5o6RccbKWZA5ynOc2nrnC7iGsmOq7jqDX7gT8L18UFtLxTYnCx4jfKxr3C7WucGucOIB29S9t1gcrcmIa+ExSCzhrY8AaTHbiOjiN6DPArla/wBDlHiGEVDqeUukY0jSje4uaWHY6J5N23sbbtRuFc+TuOw1sImhdcbHNOpzHDa1w3fgRYhBmUREBFxdVtl7nGbTOdT0ui+YXD3nWyI8AP4369mwfYgn9bXxQt0pZGRt+FI5rB63FfdLUNka17DpNcLgi9iOIuqgyEySlr3itxBzpI73jbKdLwp+FY6hHwaLA8LbblaLDuQdIqWaWhpt0vg6Q0vVe69C1poZXNxZr2k6X6fa++xn0SOkWJFuC2VCDlERAXjqsRhjLWySsYXeSHva0u9AJ1r2LX3PE6+IvB12hjAvuuHHV1oNgQuVjcAv+jQXJJ8DHrO3yGr3udYEncg+io/iWWVBA4tkqYw4bWtOm4ekNvbrVU5cZdz1kpp6Vzmw6WiNC4fOb22jXok7GjbvXtwbNDM9gfUTNhJF9BjdNwv8J1wL8bX9JQT6nzg4a82FUxvyw5g9bgAFJaapZI0OY9r2nY5rg4HrGpVDiOZ2RrbwVLXn4MjCy/RpNJt6lEpKXEsJfp6MkIB8pp0oX69jtE6LgeB1+goNkkXhwqs8NBFLa3hI4324abQ632og7KuijlAEjGvANwHAEA8da8v6hpubxdhvcq4zuZQ1NPUQsgmfE0xOc7QNtIl1hf0AfaoDyzxHnk3a/stiZj7Z0xLYX9RU3mI+w1P1FTeYj7DVr1yzxHnk3a/snLPEeeTdr+ydU8s6a8NjqWgijv4ONjL7dFoF/UvUtaYstcRDmkVUriHAhpcCHEEeKRbWDs61sjA4lrSRYkAkcCRrWS3UQ7Vj5sGp3EudDG5x2ktbc/YuvKSRzaWoc0kOEMhBG0ENNiLLXEZSVvOp/rHd6RMx6JiJ9tkP1FTeYj7De5cfqKm8xH2G9y1x5SVvOZ/rH96+RlFWc5n+sf3req3LOmOGyLcCpgQRBHcfEb3LIgWWr/KWt51N9Y7vVwZocYnqKeXwz3SFkui1zzd2iWNda+/WUmZn22IiPSwkRFjRERBrHlv7vq/n5PxWw2S/uKl+jwf02rXnLf3fV/Pyfithsl/cVL9Hg/ptQZZcELlEFPZ0sh9HSraZmrbMxo3k/wCI0D7w6+K8ea/LjwBbSVDv3TjaJ5P+G47GE/BO7gegq6ni4txVFZzMh/0VxqYG3p3nx2i58E5x9gnZwOrZZBe4K5VU5rsudPRo6l3jjVE9xHjjcwn4Q3HeOka7WQFrznX985vkxew1bDLXnOv75zfJi9hqC3s2vvZS/Nn23KTqMZtfeyl+bPtuUoQVfnjyjMcbKSN1nSjSkI2iMEgN6NJwPU0qK5qclm1Uzp5W3ihIs07HybWg8Q0az06Kw2cOvM+I1Dr3DH+Db0CPxSO1pKQZGZw4KGlbAaeR7g57nua5oDi9xIsDr1N0R1ILvARVd+2SDms3bj70/bJBzWbtx96C0HNBFjs4blr3nKyaFFU3YLQzDSYPgEans9AJBHQehTT9skHNZu3H3qM5dZdQYhA2MU8jHseHNc5zSBqLXCzdesH7AgsHNVlEaql0JHXlg0WuJ2uYRdjjxNgQTxap0qLzKVBbWyM3PgJP8j229oq9EEYy0yTjr4dF1mytuY372utsPFh3jr2qk8GxKpwmsIc0tc0hssZ8l7L3Fjv2ktd0rZNQ/LvI5lfHdtmzsB0Hbj8R3xT9nrQZ/B8ViqoWTQu0mPFxxB3tI3EbCFkCtccmso6nCqh7HMOjpWmhdquRq0mn+F3A7CLdBE7ykzsRCINow50r2+U9tmxX23B8pw4bOlB7c52W/wCjNNNTn9+8eM4f5THDb8s7uG3heG5uch3VjhU1AIp2uuAb3ndfXt/gvtO/1rqyEyNfiMpqKguMAeS5zidKd99bQeHF3UOi+IIWsa1rQGtaAAALAACwACD6jjDQABYAAADUABsAG4LsREGtFCL4qz/cP+ytl1rRh3vqz/cP+ytl0BERAWvOd198Sl6GRj7n91sMtdM6p/8Akqj0R/02oL6wD3LT/Mxf02rG5fTlmHVTmmx8C4XG0aXik33aiVkcnjelp/mIvYavrHMOFRTywONhJG9l+Bc0gEdINj1IKXzM4e2StfI4AmGPSYODnnRv1DS9avcLWnC6+pwqsJLbPYS17HamvYengdRa4d4V2ZN5dUdYGhsgjkP+XIQ1194adj+pBK11vjDgQQCDqIOsEdI3rsRB1xxhoDWgAAAADUABqAA3BF2IgxWLYBTVWj+kQsl0b6Jc3WL7QDtAWN5AYZzSP73eoLnQyqraatEcEzo2eBY6wa0hzi59zdwPADqUO5fYnzt/Zj/KguvkBhnNI/vd6cgMM5pH97vVKcvsT52/sx/lTl9ifO39mP8AKguyPITDWODm0sYc0hwOvUQbg7eKkq1xizgYkHNJqXuAc0lujH4wBF26m79nWtioX6TWnZcA24XF0HMjA4EEXBFiDrBB2iyjzshcNP8Ao4eptvwXqyvrpIKKoli/xGRuc24uARvtvsLnqWv78r68m5q5r9D7D1AWQXpyCwzmcXqPenILDOZxeo96ovlhiHO5u3/ZcHLCvP8Aq5u2gvbkHhnM4uye9ZTCsGp6ZrmwRMia43cGCwJta/qWunK2v53P2yrWzP4zPUwz+He+QskaGvebmzmC7b9Fr9aCx0REBEXCDWTLf3fV/Pyfithsl/cVL9Hg/ptWvGWx/wDPq/pEn2OIWw+S/uKl+jwf02oMsiIgLoqadsjXMe0Oa4EOaRcOB2ghd6INd8vsj34fMHx6Rp3OvG4E6UbxrDHEawRa4dvtxCsfNtlsKtn6PObVMbdp1eFaP4h8Ybx1qZ4phsdRE+GVocx4II9O8HcRtB4rXrKbAZ8Lqm6LiAHacEo1aQHHg4XAI6RuKDZNa851/fOb5MXsNVs5BZXtr4fGs2dgAkbsv8do+CfsOpVNnX985vkxew1Bb2bX3spfmz7blKFF82vvZS/Nn23KUINWcXjL6yZh2uqpW9bpnD/lXj+zHDPNP+sf3qoc4dE6nxGoAFtJ/hmfz+NftaQWw+GVzZ4mSsN2vY1wtwcLoIt+zHDPNP8ArH96fsxwzzT/AKx/epqiCFfsxwzzT/rH96fsxwzzT/rH96mqII3gWRtHRyeFp4y15aW3L3O8U2J1E9AUkREBcFcqF5wMsm0EeiyzqiQHQbtDBs03DgNw3nrQQ7PRLSFzGtF6oW0iy1hHuD+J+CNo17lWVE5gewytc6MPbptYbOLQfGAO42/9G1S3IvJGbFJnzTOcIdMmSQ+XI86y1hI9Z3bFP8rM2cEsI/RGiGVjbN+A8C/iv6eDvXdBM8BngfTxOptHwJYNANFgGjVo23EbCOKya17yIyrlwyodFM13gXP0ZGEeNG+9i5o4jeN42blftLUMkY17HBzHNDmuBuCDrBBQd6IiDWej1Yq3/cP+ytmFrJWP8HibnH+Ct0vVOCtmWm+tB9IiIC15ztx6OJS/GZG77tv+FsMtfM8FQ12IPDf4ImMPygC4j1OCC8cnfctP8xF7DVkVj8A9y0/zMX9NqyKCPZTZJU1c20zPHAs2RlmyM9Dt46DcKpco811XAS6D/wAmMa/Fs2RtthLCfG/l9SvtEGuOB5c11E7Q03SNabOin0jo9Fz47PRs6FbmSGX1NXWZrint/hvNw7joP2O9Go9Cy2P5M0tY3RniDjbU8eK9voeNfUdSonLDJqXDKhoDyWE6UMg1O8Ui4NtQcDbZt9YQbJIo9kRjRrKOKY+WQWvtq8dh0XG265F+tEHuxTBKapAFRDHLo7NNoJHoO0LHtyHw0f6KDrYD+KrnOnlNVwV3g4Z5ImNhjNmGwc5xeS7Z6B1KH8tMR55N2h3IL6GRmHcyp/qmdy+XZFYcf9FT9UbR+AVEct8S55L9z8q4OWeInbWTdoD8AgvikyNoI3B7KWJrmm4OgDYjeL7FILLWzD8tcQZIxwqZX+M3xHu02u1+SQ7jsuFshGSQCRYkC44FB8zwte0seA5rgQQRcEHaCOCwvIvDuZU/1TO5d2VmIPp6Oomjtpsjc5txcXA29W1a/OywxAm5rJ7ng8gdkah6kF98i8O5lT/VM7lzyMw7mVP9UzuVCDLLER/rJu3f8QueWmI88m7Q7kF88i8O5lT/AFTO5ZWioo4WBkTGMYNjWNDWjqC1x5aYjzybtDuVmZnsfnqRUsqJHyFhjc1zzeweHAtB9Lb9aCzUREBERBrDlp7vq/pEvtlbEZL+4qX6PB/Tatect2FtfVg6j4eQ9TjpA9YIPWthsl/cVL9Hg/ptQZZERAREQFh8pMCirYHQyjUdYcPKY4bHNPEfbsWYRBrPVU1VhNZt0JGEljgPEkjJtfXta4CxG70hdeWGMtrKp1Q1pbpsju07nNYA4X3i+9XvlnkvHXwFjrNkbcxvtrY7gfinYR3LXSvopIJHxStLHsNnNO0dOrUQdxCDYjNr72UvzZ9tyk6jGbX3spfmz7blKEFZ54cmjNE2qjZpPhGi8DWXRXJvbfokk+hzlHc2GXDae1JUOtESTG8nUxzjra47mkm4O4lXU9oIsdYPqI6VTWXebR7HOnoW6bDcuhHlM4ll/Kb8XaN10FyseCAQbg7CNYI9K7Frdk7ltW0P7tj9KNpsYpQSG23AHxmegauhTelzzN0R4WkcHfEka4epwBH2oLaXTLK1oLnODWgXJcQAANpJOwKpK/PI4i0FKAfhSyXt/I0f/pQnE8ersSeGOc+QnyYYwQwfyN/FyC9MEyvpquokgp36ZjaHFw8h1zYhp/itq17NakagGbTIx9C10s5HhpWtBYCCI2jXo3GouuddtWrftUkymx+Oii8I8FzjqYxoJfI/c1oAJ6SdwQePLXKuOgh0jZ0r7iNl9bj8J3Bg3nqVM5O4NUYvVue9xILg6aUjU1u5rd1yBZo3DWszS5IYjis5qKsGBjra3DWGjYyOMm4AF9brC+vXrVw4Hg0NJE2GBoaxvrJO1xO8lB3Ybh8dPE2KJoaxjQGgbgOJ2k8Sdq9hXKIK4zn5E/pLTUwN/fsb4zQNcrGjYPjjdx2cFDM2+W5o3inqCf0d7tRd/kuJNzx0Sdo3WvxV8kKtsu82zakunpdGOY3LmHUyQ8bjyXdOw70FjRyBwBabggEEawQdhB3hdiqfIHGqqic2ir4ZGRnVE97SWsOwML23boE7DfVs2K1wg11znYW6DEJiRZkpEjTxDgNMekPDvWFcWQGULayjjcXAyMa1ko36bQBe3BwsR6V8Zd5KNxCDRBDZo7mNx4na0/FdYejUVR9NU1uF1JtpQyt1Oa7yHtvv3PbwI9YQbOIqhoc8pAtPS3Pwon6j/K4au0V0Yrnikc0inpmsJHlSP0yP5GgD7yCxMrspYqCEyPILyCI2X1vfu1cBqudwWt2IVTpXySvOk97nOceJeST+OocLKYZPZO1mMT+Gnc/wV/GlfvHwYhqHZ1D0rFZwcMjp66WGJugxoZojgCxt7ddyg2HwIWpoB/8ATH7DV7nGwudyxuTc2nSU77WvDGbfyBeTLWhlnoqiKDy3MIAuBpDUS251DSFxr4oM8CuVrhhuVuI0D/BF7xo7YpwXAejS8Zo9BspbR55XgWlpGnpjlI+65h/FBcSqLPlVtIpYh5YL3niG2DRf0m/ZXVX55HlpENKGn4Uj9K3ToNaL+tRfBMDrMYqDLIXaDnDwkxFmtaNWgwbzuDRqGsnpC0M0EDmYc0u/ikkcPRpWH4LhTGgomQxsijFmMa1rRwDRYLhB5cVyfpakgzwMkLdQLm3IHC+2y8AyFw3mcPZUkRBG+Q2G8zi7KchsN5nF2VJEQRuPInDmuDm0kQcCHAhuwg3B28QpIiIOiqp2SMcx7Q5jgWuadhB1EFYHkJhvNIuye9SVEEa5CYbzSLsnvTkJhvNIuye9SVEEa5CYbzSL1HvWWwzCYKdujBEyNpNyGNDbnibbV70QEREBcFcogxVZk/Syv8JLTxPeP4nsa46tl7jWshHGGgAAAAAADUABqAA3LtRAREQEREBERAWLxHBKaoIdNBHI5uwvYCR17epZREHTBC1jQ1jQ1rRYNaAGgdAGxdyIgIiIMPi2TVJU656eN7vhFoDu0Nf2qOTZqsNcbhkjOhsrrfeup2iCFUubDDGG/gXPPx5HuHqvb7FJ8OwuGBujDEyNvBjQ3122r3IgL40Re9ta+0QEREBERAREQEREBeDE8JgqG6E8TJG7g5oNvQdo6l70QQKpzUYc83aJY77mSG3UHh1l68MzbYdCQ4QmRw3yuLx2fJ+xTJEHVHGGgBoAAFgALADgANix2IYBTTvD5oI5HgWDntBNhsF9/WssiDrYwAAAWA1ADUABwXYiIMfieEU9Q3RniZIN2m0Ej0HaOpROqzVYc83a2WPoZIbdQeHW6lPEQQzDs2mHQkHwRkI864vHZ1N+xS6GJrWhrWhrRqAaAABwAGxdqICIiD//2Q==;" vertex="1" parent="gJMDDrKuZHIaTqVfFHeI-27">
          <mxGeometry x="28.41999999999996" y="30" width="143.16" height="35" as="geometry" />
        </mxCell>
        <mxCell id="gJMDDrKuZHIaTqVfFHeI-29" value="" style="edgeStyle=elbowEdgeStyle;elbow=horizontal;endArrow=classic;html=1;" edge="1" parent="1" source="gJMDDrKuZHIaTqVfFHeI-3">
          <mxGeometry width="50" height="50" relative="1" as="geometry">
            <mxPoint x="481.58" y="265" as="sourcePoint" />
            <mxPoint x="531.58" y="215" as="targetPoint" />
            <Array as="points">
              <mxPoint x="506.58" y="255" />
            </Array>
          </mxGeometry>
        </mxCell>
        <mxCell id="gJMDDrKuZHIaTqVfFHeI-30" value="" style="edgeStyle=elbowEdgeStyle;elbow=horizontal;endArrow=classic;html=1;" edge="1" parent="1">
          <mxGeometry width="50" height="50" relative="1" as="geometry">
            <mxPoint x="320" y="242.5" as="sourcePoint" />
            <mxPoint x="531.5799999999999" y="297.5" as="targetPoint" />
            <Array as="points">
              <mxPoint x="506.5799999999999" y="337.5" />
            </Array>
          </mxGeometry>
        </mxCell>
        <mxCell id="gJMDDrKuZHIaTqVfFHeI-31" value="" style="edgeStyle=elbowEdgeStyle;elbow=horizontal;endArrow=classic;html=1;" edge="1" parent="1">
          <mxGeometry width="50" height="50" relative="1" as="geometry">
            <mxPoint x="320" y="315" as="sourcePoint" />
            <mxPoint x="530" y="350" as="targetPoint" />
            <Array as="points">
              <mxPoint x="506.5799999999999" y="410" />
            </Array>
          </mxGeometry>
        </mxCell>
        <mxCell id="gJMDDrKuZHIaTqVfFHeI-34" value="" style="edgeStyle=segmentEdgeStyle;endArrow=classic;html=1;entryX=1;entryY=0.5;entryDx=0;entryDy=0;exitX=0.75;exitY=1;exitDx=0;exitDy=0;" edge="1" parent="1" source="gJMDDrKuZHIaTqVfFHeI-27" target="gJMDDrKuZHIaTqVfFHeI-2">
          <mxGeometry width="50" height="50" relative="1" as="geometry">
            <mxPoint x="380" y="450" as="sourcePoint" />
            <mxPoint x="430" y="400" as="targetPoint" />
            <Array as="points">
              <mxPoint x="570" y="370" />
              <mxPoint x="570" y="450" />
              <mxPoint x="410" y="450" />
              <mxPoint x="410" y="618" />
            </Array>
          </mxGeometry>
        </mxCell>
        <mxCell id="gJMDDrKuZHIaTqVfFHeI-35" value="" style="edgeStyle=segmentEdgeStyle;endArrow=classic;html=1;entryX=0;entryY=0.5;entryDx=0;entryDy=0;" edge="1" parent="1" target="gJMDDrKuZHIaTqVfFHeI-13">
          <mxGeometry width="50" height="50" relative="1" as="geometry">
            <mxPoint x="692" y="370" as="sourcePoint" />
            <mxPoint x="297.5" y="627.5" as="targetPoint" />
            <Array as="points">
              <mxPoint x="580" y="380" />
              <mxPoint x="580" y="460" />
              <mxPoint x="420" y="460" />
              <mxPoint x="420" y="600" />
            </Array>
          </mxGeometry>
        </mxCell>
        <mxCell id="gJMDDrKuZHIaTqVfFHeI-36" value="" style="edgeStyle=segmentEdgeStyle;endArrow=classic;html=1;" edge="1" parent="1">
          <mxGeometry width="50" height="50" relative="1" as="geometry">
            <mxPoint x="702" y="370" as="sourcePoint" />
            <mxPoint x="620" y="640" as="targetPoint" />
            <Array as="points">
              <mxPoint x="702" y="390" />
              <mxPoint x="590" y="390" />
              <mxPoint x="590" y="470" />
              <mxPoint x="430" y="470" />
              <mxPoint x="430" y="640" />
              <mxPoint x="620" y="640" />
            </Array>
          </mxGeometry>
        </mxCell>
        <mxCell id="gJMDDrKuZHIaTqVfFHeI-37" value="" style="edgeStyle=segmentEdgeStyle;endArrow=classic;html=1;entryX=0;entryY=0.5;entryDx=0;entryDy=0;" edge="1" parent="1" target="gJMDDrKuZHIaTqVfFHeI-23">
          <mxGeometry width="50" height="50" relative="1" as="geometry">
            <mxPoint x="712" y="370" as="sourcePoint" />
            <mxPoint x="630" y="665" as="targetPoint" />
            <Array as="points">
              <mxPoint x="712" y="400" />
              <mxPoint x="600" y="400" />
              <mxPoint x="600" y="480" />
              <mxPoint x="440" y="480" />
              <mxPoint x="440" y="660" />
              <mxPoint x="540" y="660" />
              <mxPoint x="540" y="710" />
            </Array>
          </mxGeometry>
        </mxCell>
        <mxCell id="gJMDDrKuZHIaTqVfFHeI-40" value="" style="edgeStyle=segmentEdgeStyle;endArrow=classic;html=1;exitX=0.75;exitY=1;exitDx=0;exitDy=0;" edge="1" parent="1">
          <mxGeometry width="50" height="50" relative="1" as="geometry">
            <mxPoint x="691.5799999999995" y="380" as="sourcePoint" />
            <mxPoint x="294" y="671" as="targetPoint" />
            <Array as="points">
              <mxPoint x="580" y="380" />
              <mxPoint x="580" y="460" />
              <mxPoint x="398" y="460" />
              <mxPoint x="398" y="671" />
              <mxPoint x="294" y="671" />
            </Array>
          </mxGeometry>
        </mxCell>
      </root>
    </mxGraphModel>
  </diagram>
</mxfile>
